<svg width="1080" height="1080" viewBox="0 0 1080 1080" fill="none" xmlns="http://www.w3.org/2000/svg">
<g filter="url(#filter0_di_27_2)">
<circle cx="540" cy="540" r="490" fill="#DDE3E9"/>
<circle cx="540" cy="540" r="480" stroke="url(#paint0_linear_27_2)" stroke-width="20"/>
</g>
<path fill-rule="evenodd" clip-rule="evenodd" d="M481.528 141.525L498.703 131.775V214.8H511.603V115.8H504.253L481.528 128.925V141.525ZM553.253 127.875C556.353 126.175 559.978 125.325 564.128 125.325C569.978 125.325 574.478 126.725 577.628 129.525C580.828 132.325 582.428 137.175 582.428 144.075C582.428 147.525 581.353 151.225 579.203 155.175C577.103 159.075 574.328 163.075 570.878 167.175C567.428 171.225 563.678 175.2 559.628 179.1C555.578 183 551.578 186.625 547.628 189.975C543.678 193.325 540.128 196.25 536.978 198.75C533.878 201.2 531.553 203.025 530.003 204.225V214.8H594.653V203.25H550.028C550.778 202.65 552.378 201.4 554.828 199.5C557.328 197.55 560.278 195.075 563.678 192.075C567.128 189.075 570.678 185.725 574.328 182.025C578.028 178.275 581.478 174.3 584.678 170.1C587.878 165.85 590.478 161.525 592.478 157.125C594.478 152.725 595.478 148.425 595.478 144.225C595.478 139.875 594.853 135.85 593.603 132.15C592.353 128.45 590.453 125.25 587.903 122.55C585.353 119.85 582.103 117.75 578.153 116.25C574.203 114.75 569.528 114 564.128 114C558.828 114 554.178 114.75 550.178 116.25C546.228 117.7 542.853 119.55 540.053 121.8C537.253 124 534.953 126.25 533.153 128.55C531.353 130.85 530.028 132.875 529.178 134.625C528.328 136.325 527.853 137.4 527.753 137.85L539.078 142.8C539.178 142.6 539.753 141.6 540.803 139.8C541.903 137.95 543.478 135.925 545.528 133.725C547.628 131.475 550.203 129.525 553.253 127.875ZM709.585 191.682L726.76 181.932V264.957H739.66V165.957H732.31L709.585 179.082V191.682ZM865.421 312.51C861.271 312.51 857.646 313.36 854.546 315.06C851.496 316.71 848.921 318.66 846.821 320.91C844.771 323.11 843.196 325.135 842.096 326.985C841.046 328.785 840.471 329.785 840.371 329.985L829.046 325.035C829.146 324.585 829.621 323.51 830.471 321.81C831.321 320.06 832.646 318.035 834.446 315.735C836.246 313.435 838.546 311.185 841.346 308.985C844.146 306.735 847.521 304.885 851.471 303.435C855.471 301.935 860.121 301.185 865.421 301.185C870.821 301.185 875.496 301.935 879.446 303.435C883.396 304.935 886.646 307.035 889.196 309.735C891.746 312.435 893.646 315.635 894.896 319.335C896.146 323.035 896.771 327.06 896.771 331.41C896.771 335.61 895.771 339.91 893.771 344.31C891.771 348.71 889.171 353.035 885.971 357.285C882.771 361.485 879.321 365.46 875.621 369.21C871.971 372.91 868.421 376.26 864.971 379.26C861.571 382.26 858.621 384.735 856.121 386.685C853.671 388.585 852.071 389.835 851.321 390.435H895.946V401.985H831.296V391.41C832.846 390.21 835.171 388.385 838.271 385.935C841.421 383.435 844.971 380.51 848.921 377.16C852.871 373.81 856.871 370.185 860.921 366.285C864.971 362.385 868.721 358.41 872.171 354.36C875.621 350.26 878.396 346.26 880.496 342.36C882.646 338.41 883.721 334.71 883.721 331.26C883.721 324.36 882.121 319.51 878.921 316.71C875.771 313.91 871.271 312.51 865.421 312.51ZM886.731 501.268C885.431 503.218 884.631 504.768 884.331 505.918L895.206 511.093C895.306 510.543 895.706 509.643 896.406 508.393C897.156 507.143 898.256 505.818 899.706 504.418C901.156 502.968 903.056 501.743 905.406 500.743C907.806 499.743 910.706 499.243 914.106 499.243C920.256 499.243 924.856 500.843 927.906 504.043C930.956 507.243 932.481 511.143 932.481 515.743C932.481 519.193 931.631 522.168 929.931 524.668C928.281 527.168 926.081 529.068 923.331 530.368C920.631 531.668 917.681 532.318 914.481 532.318H911.931V542.218H913.881C917.481 542.218 920.856 542.843 924.006 544.093C927.156 545.293 929.681 547.193 931.581 549.793C933.531 552.393 934.506 555.718 934.506 559.768C934.506 563.418 933.706 566.743 932.106 569.743C930.506 572.693 928.156 575.068 925.056 576.868C922.006 578.618 918.281 579.493 913.881 579.493C909.931 579.493 906.481 578.668 903.531 577.018C900.631 575.368 898.256 573.368 896.406 571.018C894.606 568.618 893.331 566.318 892.581 564.118L880.806 570.193C881.806 573.193 883.681 576.293 886.431 579.493C889.181 582.693 892.831 585.418 897.381 587.668C901.981 589.868 907.531 590.968 914.031 590.968C920.631 590.968 926.431 589.618 931.431 586.918C936.481 584.218 940.406 580.543 943.206 575.893C946.056 571.193 947.481 565.918 947.481 560.068C947.481 555.318 946.506 551.243 944.556 547.843C942.606 544.443 940.181 541.768 937.281 539.818C934.381 537.868 931.531 536.768 928.731 536.518C931.381 536.068 933.881 534.868 936.231 532.918C938.631 530.918 940.581 528.368 942.081 525.268C943.581 522.168 944.331 518.693 944.331 514.843C944.331 509.843 943.131 505.343 940.731 501.343C938.381 497.343 934.956 494.193 930.456 491.893C926.006 489.543 920.631 488.368 914.331 488.368C909.331 488.368 905.006 489.043 901.356 490.393C897.756 491.743 894.731 493.418 892.281 495.418C889.881 497.368 888.031 499.318 886.731 501.268ZM885.963 677.349V743.949H897.288V755.499H885.963V776.349H873.063V755.499H831.438V744.849L872.013 677.349H885.963ZM873.063 743.949V696.774H872.988L845.013 743.949H873.063ZM708.279 894.926C707.428 893.526 706.853 892.376 706.553 891.476L695.303 897.026C695.853 898.426 696.828 900.151 698.228 902.201C699.628 904.201 701.578 906.201 704.078 908.201C706.578 910.201 709.678 911.876 713.378 913.226C717.128 914.526 721.578 915.176 726.728 915.176C733.728 915.176 739.753 913.701 744.803 910.751C749.853 907.751 753.703 903.626 756.353 898.376C759.053 893.076 760.404 886.976 760.404 880.076C760.353 873.176 759.003 867.476 756.353 862.976C753.703 858.426 750.228 855.051 745.928 852.851C741.628 850.601 736.978 849.476 731.978 849.476C728.128 849.476 724.853 850.001 722.154 851.051C719.453 852.051 717.353 853.151 715.853 854.351C714.404 855.501 713.553 856.301 713.303 856.751L717.953 825.926H756.203V814.376H706.853L698.378 868.076L709.703 871.901C710.353 870.301 711.478 868.601 713.078 866.801C714.728 865.001 716.853 863.476 719.453 862.226C722.103 860.926 725.178 860.276 728.678 860.276C734.328 860.276 738.853 862.051 742.253 865.601C745.654 869.151 747.378 874.176 747.428 880.676C747.478 887.676 745.628 893.326 741.878 897.626C738.128 901.876 732.928 904.001 726.279 904.001C722.978 904.001 720.154 903.526 717.803 902.576C715.453 901.626 713.503 900.476 711.953 899.126C710.404 897.726 709.178 896.326 708.279 894.926ZM542.941 899.032C548.541 899.032 553.716 900.432 558.466 903.232C563.266 905.982 567.141 909.832 570.091 914.782C573.041 919.682 574.516 925.382 574.516 931.882C574.516 938.332 572.941 944.082 569.791 949.132C566.691 954.132 562.491 958.082 557.191 960.982C551.941 963.882 546.141 965.332 539.791 965.332C533.291 965.332 527.416 963.907 522.166 961.057C516.966 958.157 512.841 954.107 509.791 948.907C506.741 943.707 505.216 937.632 505.216 930.682C505.216 923.382 506.466 917.207 508.966 912.157C511.466 907.057 514.416 902.407 517.816 898.207L544.741 864.532H560.116L527.491 904.057C528.591 902.857 530.466 901.732 533.116 900.682C535.816 899.582 539.091 899.032 542.941 899.032ZM540.016 954.457C544.116 954.457 547.841 953.457 551.191 951.457C554.591 949.407 557.291 946.682 559.291 943.282C561.291 939.882 562.291 936.132 562.291 932.032C562.291 927.932 561.291 924.207 559.291 920.857C557.291 917.457 554.591 914.757 551.191 912.757C547.841 910.757 544.116 909.757 540.016 909.757C535.866 909.757 532.091 910.757 528.691 912.757C525.341 914.757 522.641 917.457 520.591 920.857C518.591 924.207 517.591 927.932 517.591 932.032C517.591 936.132 518.591 939.882 520.591 943.282C522.641 946.682 525.341 949.407 528.691 951.457C532.091 953.457 535.866 954.457 540.016 954.457ZM388.348 814.376H324.373V825.926H373.198L322.948 913.376H337.348L388.348 823.601V814.376ZM216.151 777.677C209.951 777.677 204.376 776.402 199.426 773.852C194.476 771.302 190.576 767.852 187.726 763.502C184.876 759.102 183.451 754.177 183.451 748.727C183.451 743.827 184.276 739.677 185.926 736.277C187.626 732.827 189.901 729.977 192.751 727.727C195.601 725.477 198.701 723.727 202.051 722.477C199.601 721.327 197.276 719.827 195.076 717.977C192.926 716.077 191.151 713.702 189.751 710.852C188.351 707.952 187.651 704.452 187.651 700.352C187.651 695.352 188.926 690.952 191.476 687.152C194.026 683.352 197.426 680.402 201.676 678.302C205.976 676.152 210.776 675.077 216.076 675.077C221.376 675.077 226.151 676.152 230.401 678.302C234.651 680.402 238.001 683.352 240.451 687.152C242.951 690.952 244.201 695.352 244.201 700.352C244.201 706.502 242.776 711.277 239.926 714.677C237.126 718.077 233.826 720.677 230.026 722.477C233.376 723.727 236.451 725.477 239.251 727.727C242.101 729.977 244.376 732.827 246.076 736.277C247.826 739.677 248.701 743.827 248.701 748.727C248.701 754.177 247.276 759.102 244.426 763.502C241.626 767.852 237.751 771.302 232.801 773.852C227.901 776.402 222.351 777.677 216.151 777.677ZM216.076 766.127C219.626 766.127 222.826 765.302 225.676 763.652C228.576 762.002 230.876 759.752 232.576 756.902C234.326 754.052 235.201 750.877 235.201 747.377C235.201 743.827 234.326 740.652 232.576 737.852C230.876 735.002 228.576 732.752 225.676 731.102C222.826 729.402 219.626 728.552 216.076 728.552C212.526 728.552 209.276 729.402 206.326 731.102C203.426 732.752 201.126 735.002 199.426 737.852C197.726 740.652 196.876 743.827 196.876 747.377C196.876 750.877 197.726 754.052 199.426 756.902C201.126 759.752 203.426 762.002 206.326 763.652C209.276 765.302 212.526 766.127 216.076 766.127ZM216.076 718.052C219.076 718.052 221.776 717.327 224.176 715.877C226.626 714.427 228.576 712.477 230.026 710.027C231.526 707.527 232.276 704.777 232.276 701.777C232.276 698.827 231.526 696.127 230.026 693.677C228.576 691.227 226.626 689.277 224.176 687.827C221.776 686.377 219.076 685.652 216.076 685.652C213.126 685.652 210.401 686.377 207.901 687.827C205.451 689.277 203.476 691.227 201.976 693.677C200.526 696.127 199.801 698.827 199.801 701.777C199.801 704.777 200.526 707.527 201.976 710.027C203.476 712.477 205.451 714.427 207.901 715.877C210.401 717.327 213.126 718.052 216.076 718.052ZM179.025 549.098L146.475 588.623H161.775L188.775 554.948C192.175 550.748 195.125 546.098 197.625 540.998C200.125 535.898 201.375 529.723 201.375 522.473C201.375 515.523 199.825 509.448 196.725 504.248C193.675 499.048 189.55 495.023 184.35 492.173C179.15 489.273 173.3 487.823 166.8 487.823C160.45 487.823 154.65 489.273 149.4 492.173C144.15 495.073 139.925 499.048 136.725 504.098C133.575 509.098 132 514.823 132 521.273C132 527.773 133.475 533.498 136.425 538.448C139.375 543.348 143.25 547.198 148.05 549.998C152.9 552.748 158.1 554.123 163.65 554.123C167.5 554.123 170.75 553.598 173.4 552.548C176.05 551.448 177.925 550.298 179.025 549.098ZM177.825 540.398C174.475 542.398 170.725 543.398 166.575 543.398C162.475 543.398 158.725 542.398 155.325 540.398C151.975 538.398 149.3 535.723 147.3 532.373C145.3 528.973 144.3 525.223 144.3 521.123C144.3 516.973 145.3 513.223 147.3 509.873C149.3 506.473 151.975 503.773 155.325 501.773C158.725 499.723 162.475 498.698 166.575 498.698C170.725 498.698 174.475 499.723 177.825 501.773C181.225 503.773 183.925 506.473 185.925 509.873C187.975 513.223 189 516.973 189 521.123C189 525.223 187.975 528.973 185.925 532.373C183.925 535.723 181.225 538.398 177.825 540.398ZM171.811 318.964L154.636 328.714V316.114L177.361 302.989H184.711V401.989H171.811V318.964ZM201.911 352.564C201.911 343.764 202.961 336.139 205.061 329.689C207.211 323.239 210.061 317.914 213.611 313.714C217.211 309.464 221.211 306.314 225.611 304.264C230.061 302.214 234.636 301.189 239.336 301.189C244.036 301.189 248.611 302.214 253.061 304.264C257.511 306.314 261.486 309.464 264.986 313.714C268.536 317.914 271.336 323.239 273.386 329.689C275.486 336.139 276.536 343.764 276.536 352.564C276.536 361.514 275.486 369.239 273.386 375.739C271.336 382.189 268.536 387.489 264.986 391.639C261.486 395.739 257.511 398.789 253.061 400.789C248.611 402.789 244.036 403.789 239.336 403.789C234.636 403.789 230.061 402.789 225.611 400.789C221.211 398.789 217.211 395.739 213.611 391.639C210.061 387.489 207.211 382.189 205.061 375.739C202.961 369.239 201.911 361.514 201.911 352.564ZM215.036 352.564C215.036 361.414 216.136 368.789 218.336 374.689C220.536 380.539 223.461 384.914 227.111 387.814C230.811 390.714 234.886 392.164 239.336 392.164C243.786 392.164 247.836 390.714 251.486 387.814C255.136 384.914 258.061 380.539 260.261 374.689C262.461 368.789 263.561 361.414 263.561 352.564C263.561 343.814 262.461 336.514 260.261 330.664C258.061 324.764 255.136 320.314 251.486 317.314C247.836 314.314 243.786 312.814 239.336 312.814C234.886 312.814 230.811 314.314 227.111 317.314C223.461 320.314 220.536 324.764 218.336 330.664C216.136 336.514 215.036 343.814 215.036 352.564ZM312.315 191.687L329.49 181.937V264.962H342.39V165.962H335.04L312.315 179.087V191.687ZM358.165 191.687L375.34 181.937V264.962H388.24V165.962H380.89L358.165 179.087V191.687Z" fill="#101724"/>
<defs>
<filter id="filter0_di_27_2" x="0" y="0" width="1080" height="1080" filterUnits="userSpaceOnUse" color-interpolation-filters="sRGB">
<feFlood flood-opacity="0" result="BackgroundImageFix"/>
<feColorMatrix in="SourceAlpha" type="matrix" values="0 0 0 0 0 0 0 0 0 0 0 0 0 0 0 0 0 0 127 0" result="hardAlpha"/>
<feOffset/>
<feGaussianBlur stdDeviation="25"/>
<feComposite in2="hardAlpha" operator="out"/>
<feColorMatrix type="matrix" values="0 0 0 0 0 0 0 0 0 0 0 0 0 0 0 0 0 0 0.5 0"/>
<feBlend mode="normal" in2="BackgroundImageFix" result="effect1_dropShadow_27_2"/>
<feBlend mode="normal" in="SourceGraphic" in2="effect1_dropShadow_27_2" result="shape"/>
<feColorMatrix in="SourceAlpha" type="matrix" values="0 0 0 0 0 0 0 0 0 0 0 0 0 0 0 0 0 0 127 0" result="hardAlpha"/>
<feOffset/>
<feGaussianBlur stdDeviation="50"/>
<feComposite in2="hardAlpha" operator="arithmetic" k2="-1" k3="1"/>
<feColorMatrix type="matrix" values="0 0 0 0 0 0 0 0 0 0 0 0 0 0 0 0 0 0 0.5 0"/>
<feBlend mode="normal" in2="shape" result="effect2_innerShadow_27_2"/>
</filter>
<linearGradient id="paint0_linear_27_2" x1="209.25" y1="174.95" x2="890.35" y2="889.86" gradientUnits="userSpaceOnUse">
<stop stop-color="#FF3C3C"/>
<stop offset="1" stop-color="#FF8540"/>
</linearGradient>
</defs>
</svg>
